<svg fill="none" height="57" viewBox="0 0 218 57" width="218" xmlns="http://www.w3.org/2000/svg" xmlns:xlink="http://www.w3.org/1999/xlink"><clipPath id="a"><path d="m0 0h218v57h-218z"/></clipPath><g clip-path="url(#a)"><path d="m25.6477 8.5035c-6.6379.3218-13.1899 1.6518-19.43498 3.9453-3.17707 1.17-6.857783 3.6703-6.1161216 6.9992.8037536 3.5902 5.6676816 3.9488 9.3138916 3.5937 7.36831-.7243 14.91941-.9994 22.07731.961 10.1349 2.7858 19.5799 9.9974 29.9873 8.5523 6.1885-.8566 12.0045-4.7915 18.1931-3.9279 3.7048.5188 7.0509 2.7335 10.78 3.0121 3.0011.2228 5.9298-.8253 8.8205-1.668 10.7203-3.1101 22.0353-3.506 32.9433-1.1526 8.569 1.863 17.648 5.3765 25.762 2.0197 3.035-1.2571 7.934-2.0893 9.659.7556 2.459 4.0811-1.449 12.0449 4.08 12.0449 5.53 0 .125-12.306 5.816-12.306 5.692 0-1.341 26.59 6.807 25.6428 6.578-.7661-1.701-25.5593 5.45-25.5593s-.059 12.3061 5.174 12.3061.059-15.8718 7.5-16.0947c15.944-.4736 16.082-5.0422 15.388-6.7694-.421-1.0446-1.5-1.6575-2.521-2.1276-6.679-3.0643-14.368-3.8896-20.429-8.0578-3.104-2.14503-5.643-5.08051-8.82-7.13501-8.235-5.33123-19.032-3.774693-28.404-.93671-9.373 2.83799-18.842 6.81813-28.566 5.72124-5.616-.63376-10.925-2.94244-16.51-3.80951-16.8099-2.61164-33.1644 8.00899-50.1639 7.45889-7.734-.2508-15.1955-2.80668-22.8329-4.05679-7.6373-1.25011-25.3647.74867-33.33329 4.52689" fill="#fff"/><path d="m194.905 43.7224c5.216 0 .059-15.8718 7.499-16.0947 15.944-.4736 16.082-5.0422 15.389-6.7694-.421-1.0446-1.501-1.6575-2.522-2.1276-6.392-2.932-13.701-3.8304-19.631-7.5459.701.5778 1.483 1.0472 2.321 1.3929 1.905.7904 10.304 4.8751 9.604 7.4728s-10.787 2.6047-15.709 2.1311c-10.349-.9959-17.821-1.4173-24.62.6964-4.105 1.285-14.002 4.0637-21.098 2.6012-12.66-2.6012-26.713-6.0625-32.35-5.6585-5.712.4074-11.152 1.9604-16.7167 3.2036-5.2123 1.1665-9.6209.8496-14.8332 0-5.8919-.9472-11.2698-.2438-17.0616 1.0446-5.7919 1.2884-10.3729 1.4312-16.0027-.6477-5.2399-1.9361-10.2211-4.579-15.7922-5.4357-6.2782-.9645-12.3598.5467-18.6277.2194-2.0249-.1079-4.6984-.5014-6.20927-1.9883-.64162-.6268-1.90762-2.3853-1.45572-3.4195.12499-.2898.23099-.5876.31735-.8915-.41395.1707-.8141.3482-1.18666.5189-3.17706 1.17-6.857765 3.6702-6.116104 6.9992.803753 3.5901 5.667654 3.9488 9.313874 3.5936 7.36833-.7243 14.91943-.9994 22.07733.9611 10.1349 2.7857 19.5799 9.9974 29.9872 8.5523 6.1886-.8567 12.0046-4.7915 18.1932-3.928 3.7048.5189 7.0509 2.7336 10.7799 3.0121 3.0012.2229 5.9299-.8252 8.8206-1.6679 10.7204-3.1102 22.0354-3.506 32.9434-1.1526 8.569 1.8629 17.648 5.3765 25.762 2.0196 3.035-1.257 7.934-2.0893 9.659.7557 2.459 4.0811-1.449 12.0449 4.08 12.0449 5.53 0 .125-12.3061 5.816-12.3061 5.692 0-1.342 26.59 6.806 25.6429 6.579-.7661-1.7-25.5593 5.451-25.5593s-.107 12.3304 5.112 12.3304z" fill="#336ec2" opacity=".15"/><path d="m217.793 20.8583c-.421-1.0446-1.501-1.6575-2.522-2.1276-5.726-2.6256-12.19-3.6145-17.737-6.4664.46.2925.932.5769 1.417.8531 4.423 2.5281 9.476 3.4822 13.854 6.1496 4.54 2.7857.124 4.6104-2.943 4.9377-3.066.3273-6.098.4701-8.993 1.7864-2.635 1.2013-4.032 4.0358-4.336 6.7972-.168 1.8603-.205 3.7303-.11 5.5959.038 1.365-1.256 6.658-2.17 2.925-.414-1.6888.155-3.7259.183-5.4461-.018-1.5789-.371-3.1355-1.035-4.5652-1.09-2.5768-4.75-3.8304-6.796-1.6575-3.956 4.2065-1.531 12.9573-1.114 18.0238.189 1.5686.205 3.1533.048 4.7254-.262 1.8769-1.724 2.9076-2.576.8253-1.173-2.8798-1.108-6.268-1.153-9.3358-.058-3.7329 1.297-11.439-2.049-14.2004-1.824-1.5043-5.053-.9576-6.136 1.3058-1.266 2.65-.908 5.9198-.846 8.7961.021.9471.049 1.466-1.034 1.5983-1.325.1637-1.58-3.336-1.594-4.1299-.052-2.4027.769-6.1112-1.425-7.922-2.194-1.8107-4.609-1.7132-7.358-1.2153-3.994.7278-7.485 1.8978-11.635 1.9013-8.728 0-17.248-3.134-25.782-4.5895-9.197-1.5705-17.214.1288-26.1207 2.3505-4.5604 1.1386-8.3549 1.6331-12.7635-.101-3.4082-1.3372-6.4404-2.3853-10.1383-1.7098-4.0223.7348-7.6995 2.5037-11.5527 3.8061-4.6293 1.56-9.1311.7556-13.6983-.599-8.1307-2.4096-15.5231-6.8355-24.016-8.0369-4.2499-.6024-8.3066.1184-12.522.6373-3.62553.4492-12.970466-.2333-10.71444-6.3516.05728-.1421.08207-.2954.07251-.4486-.00955-.1531-.05321-.3021-.1277-.4358-1.624757 1.2849-2.725166 2.9529-2.2870684 4.9133.8037534 3.5902 5.6676584 3.9489 9.3138684 3.5937 7.36833-.7243 14.91943-.9994 22.07733.961 10.1349 2.7858 19.5799 9.9974 29.9873 8.5523 6.1885-.8566 12.0045-4.7915 18.1931-3.9279 3.7049.5189 7.0509 2.7335 10.7799 3.0121 3.0012.2229 5.9299-.8253 8.8206-1.668 10.7211-3.1101 22.0351-3.506 32.9431-1.1526 8.569 1.863 17.649 5.3765 25.762 2.0197 3.036-1.2571 7.934-2.0893 9.659.7556 2.459 4.0812-1.449 12.0449 4.081 12.0449 5.529 0 .124-12.306 5.816-12.306 5.691 0-1.342 26.59 6.806 25.6428 6.578-.7661-1.701-25.5593 5.45-25.5593s-.059 12.3061 5.174 12.3061.059-15.8718 7.5-16.0947c15.916-.4736 16.04-5.0561 15.347-6.7694z" fill="#aadbee"/><path d="m200.297 17.794c.024-.0045.047-.0176.063-.037s.025-.0439.025-.0692-.009-.0498-.025-.0692-.039-.0325-.063-.037c-.025.0045-.047.0176-.063.037s-.025.0439-.025.0692.009.0498.025.0692.038.0325.063.037z" fill="#336ec2" opacity=".15"/></g></svg>